<mxfile host="app.diagrams.net" modified="2023-08-26T09:13:09.248Z" agent="Mozilla/5.0 (Windows NT 10.0; Win64; x64) AppleWebKit/537.36 (KHTML, like Gecko) Chrome/116.0.0.0 Safari/537.36 Edg/116.0.1938.54" version="21.6.9" etag="B99b54ibMJm57Sp2heW3" type="github">
  <diagram name="第 1 页" id="bfUChUj7trzjhSH4Du6q">
    <mxGraphModel>
      <root>
        <mxCell id="0" />
        <mxCell id="1" parent="0" />
      </root>
    </mxGraphModel>
  </diagram>
</mxfile>
